<svg xmlns="http://www.w3.org/2000/svg" xmlns:xlink="http://www.w3.org/1999/xlink" width="1024" height="1024" fill="none" viewBox="0 0 1024 1024"><desc>Created with Pixso.</desc><defs><clipPath id="clip5_29"><rect id="mark" width="942.84" height="1024" fill="#fff" fill-opacity="0" transform="translate(41.000000 0.000000)"/></clipPath><clipPath id="clip2_1"><rect id="mark" width="1024" height="1024" fill="#fff" fill-opacity="0"/></clipPath></defs><g clip-path="url(#clip2_1)"><g clip-path="url(#clip5_29)"><mask id="mask5_31" width="942.84" height="1024" x="41" y="0" mask-type="alpha" maskUnits="userSpaceOnUse"><rect id="rect" width="942.84" height="1024" x="41" fill="#000" fill-opacity="1"/></mask><g mask="url(#mask5_31)"><path id="path" fill="#299AD9" fill-opacity="1" fill-rule="evenodd" d="M860.28 3.72L976.43 91.24C983.78 96.79 985.26 107.26 979.71 114.63L703.33 481.4L560.51 373.78L836.9 7.01C842.44 -0.36 852.91 -1.83 860.28 3.72ZM703.33 481.4L595.56 624.41L560.51 373.78L703.33 481.4Z"/><path id="path" fill="#1BC4F9" fill-opacity="1" fill-rule="evenodd" d="M604.61 686.26L712.38 543.24L747.43 793.88L604.61 686.26Z"/><path id="path" fill="#AD73FB" fill-opacity="1" fill-rule="evenodd" d="M777.08 1004.63L755.95 855.3L612.96 747.54L639.6 935.92L751.1 1019.95C762.72 1028.71 779.12 1019.05 777.08 1004.63Z"/><path id="path" fill="#90E2FC" fill-opacity="1" fill-rule="evenodd" d="M55.07 460.55L518.43 396.29L589.94 898.5L47.5 489.73C35.89 480.99 40.68 462.54 55.07 460.55Z"/></g></g></g></svg>